<svg width="32" height="32" viewBox="0 0 32 32" fill="none" xmlns="http://www.w3.org/2000/svg">
<ellipse cx="16" cy="16.0007" rx="14.6667" ry="14.6667" fill="#ECECEC"/>
<path fill-rule="evenodd" clip-rule="evenodd" d="M9.6605 9.66221C9.22287 10.0998 9.22287 10.8094 9.6605 11.247L14.4151 16.0016L9.66072 20.756C9.22309 21.1936 9.22309 21.9031 9.66072 22.3408C10.0984 22.7784 10.8079 22.7784 11.2455 22.3408L15.9999 17.5864L20.7541 22.3406C21.1917 22.7782 21.9013 22.7782 22.3389 22.3406C22.7765 21.903 22.7765 21.1934 22.3389 20.7558L17.5847 16.0016L22.3391 11.2472C22.7767 10.8095 22.7767 10.1 22.3391 9.66237C21.9015 9.22474 21.1919 9.22474 20.7543 9.66237L15.9999 14.4168L11.2453 9.66221C10.8077 9.22458 10.0981 9.22458 9.6605 9.66221Z" fill="#8F8F8F"/>
</svg>
