<?xml version="1.0" encoding="UTF-8"?>
<svg width="181px" height="91px" viewBox="0 0 181 91" version="1.1" xmlns="http://www.w3.org/2000/svg" xmlns:xlink="http://www.w3.org/1999/xlink">
    <!-- Generator: sketchtool 51.2 (57519) - http://www.bohemiancoding.com/sketch -->
    <title>88BBD979-C895-48AF-9024-F232CD948AD6</title>
    <desc>Created with sketchtool.</desc>
    <defs></defs>
    <g id="FInal-Screens---MOCK-TEST" stroke="none" stroke-width="1" fill="none" fill-rule="evenodd">
        <g id="Mock-test-subjective-Mobile-2" transform="translate(-71.000000, -267.000000)">
            <g id="Group-10" transform="translate(8.000000, 120.000000)">
                <g id="Answer-Empty-State" transform="translate(63.000000, 147.000000)">
                    <path d="M40.2474,36.1396 L42.3904,40.4826 C42.5684,40.8426 42.9124,41.0926 43.3104,41.1516 L48.1024,41.8476 C49.1054,41.9936 49.5064,43.2256 48.7804,43.9326 L45.3124,47.3126 C45.0244,47.5936 44.8934,47.9976 44.9614,48.3946 L45.7794,53.1666 C45.9514,54.1656 44.9024,54.9276 44.0064,54.4556 L39.7204,52.2026 C39.3634,52.0156 38.9384,52.0156 38.5824,52.2026 L34.2964,54.4556 C33.3984,54.9276 32.3514,54.1656 32.5214,53.1666 L33.3414,48.3946 C33.4084,47.9976 33.2774,47.5936 32.9894,47.3126 L29.5214,43.9326 C28.7964,43.2256 29.1964,41.9936 30.1994,41.8476 L34.9914,41.1516 C35.3894,41.0926 35.7334,40.8426 35.9114,40.4826 L38.0554,36.1396 C38.5034,35.2316 39.7994,35.2316 40.2474,36.1396" id="Fill-1" fill="#792877"></path>
                    <path d="M140.5394,9.5352 L141.4354,11.3492 C141.5094,11.5012 141.6524,11.6052 141.8194,11.6292 L143.8224,11.9202 C144.2414,11.9812 144.4084,12.4962 144.1054,12.7922 L142.6564,14.2042 C142.5354,14.3222 142.4804,14.4912 142.5094,14.6572 L142.8524,16.6512 C142.9234,17.0692 142.4844,17.3882 142.1094,17.1902 L140.3184,16.2482 C140.1704,16.1702 139.9914,16.1702 139.8434,16.2482 L138.0524,17.1902 C137.6774,17.3882 137.2384,17.0692 137.3104,16.6512 L137.6524,14.6572 C137.6814,14.4912 137.6264,14.3222 137.5054,14.2042 L136.0564,12.7922 C135.7534,12.4962 135.9204,11.9812 136.3394,11.9202 L138.3424,11.6292 C138.5094,11.6052 138.6524,11.5012 138.7274,11.3492 L139.6224,9.5352 C139.8104,9.1552 140.3524,9.1552 140.5394,9.5352" id="Fill-3" fill="#792877"></path>
                    <path d="M179.7504,84.6113 C159.3694,78.9413 135.5164,75.1353 109.7044,73.8333" id="Stroke-5" stroke="#999999" stroke-width="1.5" stroke-linecap="round"></path>
                    <path d="M63.4261,84.5 C61.5641,84.5 60.0481,82.984 60.0481,81.122 L60.0481,13.378 C60.0481,11.516 61.5641,10 63.4261,10 L98.9881,10 L114.5481,25.561 L114.5481,81.122 C114.5481,82.984 113.0321,84.5 111.1701,84.5 L63.4261,84.5 Z" id="Fill-7" fill="#999999"></path>
                    <path d="M99.2982,9.25 L63.4262,9.25 C61.1472,9.25 59.2982,11.099 59.2982,13.378 L59.2982,81.122 C59.2982,83.401 61.1472,85.25 63.4262,85.25 L111.1702,85.25 C113.4492,85.25 115.2982,83.401 115.2982,81.122 L115.2982,25.25 L99.2982,9.25 Z M98.6772,10.75 L113.7982,25.871 L113.7982,81.122 C113.7982,82.571 112.6192,83.75 111.1702,83.75 L63.4262,83.75 C61.9772,83.75 60.7982,82.571 60.7982,81.122 L60.7982,13.378 C60.7982,11.929 61.9772,10.75 63.4262,10.75 L98.6772,10.75 Z" id="Fill-9" fill="#666666"></path>
                    <path d="M128.0131,28.7295 L129.0401,33.0745 C129.1251,33.4355 129.3831,33.7315 129.7291,33.8665 L133.8901,35.4835 C134.7611,35.8215 134.8661,37.0115 134.0681,37.4975 L130.2521,39.8165 C129.9361,40.0085 129.7341,40.3445 129.7121,40.7155 L129.4601,45.1725 C129.4081,46.1055 128.3081,46.5735 127.6001,45.9635 L124.2151,43.0515 C123.9341,42.8105 123.5521,42.7215 123.1941,42.8165 L118.8761,43.9545 C117.9731,44.1925 117.1891,43.2915 117.5491,42.4295 L119.2721,38.3105 C119.4151,37.9685 119.3811,37.5785 119.1801,37.2655 L116.7641,33.5115 C116.2591,32.7255 116.8731,31.7015 117.8041,31.7785 L122.2541,32.1445 C122.6231,32.1745 122.9851,32.0215 123.2191,31.7335 L126.0431,28.2755 C126.6341,27.5525 127.7981,27.8205 128.0131,28.7295 Z" id="Stroke-11" stroke="#999999" stroke-width="1.5" stroke-linecap="round" stroke-linejoin="round"></path>
                    <path d="M69.4261,80.5 C67.5641,80.5 66.0481,78.984 66.0481,77.122 L66.0481,9.378 C66.0481,7.516 67.5641,6 69.4261,6 L104.9881,6 L120.5481,21.561 L120.5481,77.122 C120.5481,78.984 119.0321,80.5 117.1701,80.5 L69.4261,80.5 Z" id="Fill-13" fill="#FFFFFF"></path>
                    <path d="M105.2982,5.25 L69.4262,5.25 C67.1472,5.25 65.2982,7.099 65.2982,9.378 L65.2982,77.122 C65.2982,79.401 67.1472,81.25 69.4262,81.25 L117.1702,81.25 C119.4492,81.25 121.2982,79.401 121.2982,77.122 L121.2982,21.25 L105.2982,5.25 Z M104.6772,6.75 L119.7982,21.871 L119.7982,77.122 C119.7982,78.571 118.6192,79.75 117.1702,79.75 L69.4262,79.75 C67.9772,79.75 66.7982,78.571 66.7982,77.122 L66.7982,9.378 C66.7982,7.929 67.9772,6.75 69.4262,6.75 L104.6772,6.75 Z" id="Fill-15" fill="#666666"></path>
                    <path d="M146.2338,61.0693 L149.0248,62.0153 C149.2568,62.0933 149.5128,62.0533 149.7098,61.9073 L152.0718,60.1443 C152.5658,59.7753 153.2678,60.1333 153.2598,60.7503 L153.2228,63.6973 C153.2198,63.9423 153.3378,64.1733 153.5378,64.3143 L155.9438,66.0163 C156.4478,66.3733 156.3238,67.1513 155.7348,67.3353 L152.9208,68.2103 C152.6858,68.2823 152.5038,68.4653 152.4308,68.6993 L151.5558,71.5143 C151.3728,72.1033 150.5928,72.2263 150.2378,71.7223 L148.5358,69.3163 C148.3938,69.1163 148.1638,68.9993 147.9188,69.0023 L144.9708,69.0403 C144.3538,69.0483 143.9968,68.3443 144.3658,67.8503 L146.1288,65.4883 C146.2748,65.2923 146.3148,65.0363 146.2368,64.8033 L145.2898,62.0123 C145.0918,61.4283 145.6498,60.8713 146.2338,61.0693 Z" id="Stroke-17" stroke="#999999" stroke-width="1.5" stroke-linecap="round" stroke-linejoin="round"></path>
                    <g id="Group-22" transform="translate(75.000000, 24.500000)">
                        <path d="M0.2982,0.75 L18.2982,0.75" id="Fill-19" fill="#FFFFFF"></path>
                        <path d="M0.2982,0.75 L18.2982,0.75" id="Stroke-21" stroke="#666666" stroke-width="1.5" stroke-linecap="round"></path>
                    </g>
                    <g id="Group-26" transform="translate(75.000000, 34.500000)">
                        <path d="M0.2982,0.75 L32.2982,0.75" id="Fill-23" fill="#FFFFFF"></path>
                        <path d="M0.2982,0.75 L32.2982,0.75" id="Stroke-25" stroke="#666666" stroke-width="1.5" stroke-linecap="round"></path>
                    </g>
                    <path d="M105.2982,6.25 L105.2982,17.38 C105.2982,19.518 107.0302,21.25 109.1682,21.25 L120.2982,21.25" id="Stroke-27" stroke="#666666" stroke-width="1.5" stroke-linecap="round" stroke-linejoin="round"></path>
                    <g id="Group-32" transform="translate(75.000000, 44.500000)">
                        <path d="M0.2982,0.75 L32.2982,0.75" id="Fill-29" fill="#FFFFFF"></path>
                        <path d="M0.2982,0.75 L32.2982,0.75" id="Stroke-31" stroke="#666666" stroke-width="1.5" stroke-linecap="round"></path>
                    </g>
                    <g id="Group-36" transform="translate(75.000000, 54.500000)">
                        <path d="M0.2982,0.75 L32.2982,0.75" id="Fill-33" fill="#FFFFFF"></path>
                        <path d="M0.2982,0.75 L32.2982,0.75" id="Stroke-35" stroke="#666666" stroke-width="1.5" stroke-linecap="round"></path>
                    </g>
                    <g id="Group-40" transform="translate(75.000000, 64.500000)">
                        <path d="M0.2982,0.75 L14.2982,0.75" id="Fill-37" fill="#FFFFFF"></path>
                        <path d="M0.2982,0.75 L14.2982,0.75" id="Stroke-39" stroke="#666666" stroke-width="1.5" stroke-linecap="round"></path>
                    </g>
                    <g id="Group-44" transform="translate(94.000000, 64.500000)">
                        <path d="M0.2982,0.75 L4.2982,0.75" id="Fill-41" fill="#FFFFFF"></path>
                        <path d="M0.2982,0.75 L4.2982,0.75" id="Stroke-43" stroke="#666666" stroke-width="1.5" stroke-linecap="round"></path>
                    </g>
                    <path d="M47.1039,75.7813 C31.9699,77.5213 17.7689,80.1423 4.8659,83.4973 C3.4759,83.8583 2.1099,84.2333 0.7499,84.6113" id="Stroke-45" stroke="#999999" stroke-width="1.5" stroke-linecap="round"></path>
                    <path d="M77.4642,0.75 L68.3152,0.75 C65.1422,0.75 62.5682,3.322 62.5682,6.496" id="Stroke-47" stroke="#999999" stroke-width="1.5" stroke-linecap="round" stroke-linejoin="round"></path>
                    <path d="M87.4701,89.75 L61.9001,89.75 C58.1171,89.75 55.0511,86.684 55.0511,82.9 L55.0511,78.846" id="Stroke-49" stroke="#999999" stroke-width="1.5" stroke-linecap="round" stroke-linejoin="round"></path>
                </g>
            </g>
        </g>
    </g>
</svg>